<svg xmlns="http://www.w3.org/2000/svg" version="1.1" xmlns:xlink="http://www.w3.org/1999/xlink" xmlns:svgjs="http://svgjs.com/svgjs" width="1447" height="570" preserveAspectRatio="none" viewBox="0 0 1447 570"><g mask="url(&quot;#SvgjsMask1089&quot;)" fill="none"><rect width="1447" height="570" x="0" y="0" fill="rgba(24, 106, 59, 1)"></rect><path d="M0,446.926C82.083,438.001,131.086,354.033,191.036,297.258C239.994,250.893,281.778,202.027,318.386,145.402C361.044,79.419,429.095,17.548,422.483,-60.744C415.856,-139.223,344.984,-195.846,285.235,-247.157C231.798,-293.048,168.284,-323.913,99.324,-338.266C34.192,-351.823,-30.425,-338.471,-95.863,-326.479C-168.854,-313.102,-253.679,-317.892,-304.89,-264.188C-356.37,-210.203,-359.715,-126.064,-358.094,-51.486C-356.64,15.436,-318.418,72.127,-296.21,135.274C-271.339,205.993,-271.384,287.583,-219.739,341.92C-162.656,401.978,-82.373,455.882,0,446.926" fill="#104526"></path><path d="M1447 1115.473C1549.621 1101.4360000000001 1573.034 956.762 1654.223 892.4449999999999 1723.672 837.428 1839.8609999999999 846.419 1883.7730000000001 769.467 1927.777 692.354 1877.482 597.404 1873.192 508.723 1868.3519999999999 408.683 1919.613 292.909 1856.937 214.78699999999998 1794.4940000000001 136.95499999999998 1673.938 142.668 1574.361 136.247 1490.943 130.868 1415.549 169.32 1332.776 180.98700000000002 1231.66 195.24 1107.1770000000001 140.86599999999999 1034.278 212.37400000000002 962.5319999999999 282.751 993.424 405.77 1001.494 505.946 1008.187 589.029 1043.01 662.87 1076.712 739.105 1110.853 816.3340000000001 1140.615 894.406 1199.834 954.598 1270.202 1026.122 1347.59 1129.071 1447 1115.473" fill="#208f50"></path></g><defs><mask id="SvgjsMask1089"><rect width="1447" height="570" fill="#ffffff"></rect></mask></defs></svg>