<svg xmlns="http://www.w3.org/2000/svg" version="1.1" xmlns:xlink="http://www.w3.org/1999/xlink" xmlns:svgjs="http://svgjs.com/svgjs" width="1447" height="570" preserveAspectRatio="none" viewBox="0 0 1447 570"><g mask="url(&quot;#SvgjsMask1214&quot;)" fill="none"><rect width="1447" height="570" x="0" y="0" fill="rgba(232, 206, 179, 1)"></rect><path d="M0,457.981C91.631,472.706,192.27,470.839,270.181,420.411C348.019,370.03,388.479,278.348,414.861,189.461C438.945,108.316,437.124,21.686,412.568,-59.318C390.201,-133.1,341.451,-194.925,283.07,-245.282C230.325,-290.778,165.301,-316.311,97.273,-331.281C32.865,-345.455,-30.68,-332.028,-96.551,-328.822C-185.246,-324.506,-293.885,-371.833,-356.815,-309.182C-418.555,-247.716,-369.111,-140.659,-372.973,-53.625C-376.387,23.327,-406.058,100.904,-378.197,172.717C-349.678,246.227,-282.548,294.222,-219.599,341.703C-152.106,392.611,-83.469,444.568,0,457.981" fill="#c78745"></path><path d="M1447 1030.66C1539.848 1013.677 1640.81 1045.955 1722.596 998.836 1805.84 950.877 1844.234 856.452 1893.027 773.694 1947.52 681.268 2017.8890000000001 594.084 2024.374 486.986 2031.549 368.483 2018.109 231.21800000000002 1930.741 150.836 1843.6689999999999 70.726 1705.268 108.30599999999998 1588.993 86.41500000000002 1486.733 67.16300000000001 1390.232 8.437999999999988 1288.415 29.908000000000015 1183.35 52.06299999999999 1097.5520000000001 125.14299999999997 1025.937 205.147 953.479 286.093 897.706 381.346 878.169 488.214 858.169 597.617 877.901 708.131 914.806 813.045 954.494 925.87 987.273 1067.8220000000001 1097.978 1113.089 1210.914 1159.269 1326.978 1052.614 1447 1030.66" fill="#ffffff"></path></g><defs><mask id="SvgjsMask1214"><rect width="1447" height="570" fill="#ffffff"></rect></mask></defs></svg>